<?xml version="1.0" encoding="UTF-8" standalone="no"?>
<!-- Created with Inkscape (http://www.inkscape.org/) -->

<svg
   width="141.077mm"
   height="29.837999mm"
   viewBox="0 0 533.20441 112.77354"
   version="1.1"
   id="svg1"
   inkscape:version="1.4.2 (f4327f4, 2025-05-13)"
   sodipodi:docname="logo_inkscape.svg"
   xml:space="preserve"
   inkscape:export-filename="web\frontend\web\images\logo.svg"
   inkscape:export-xdpi="96"
   inkscape:export-ydpi="96"
   xmlns:inkscape="http://www.inkscape.org/namespaces/inkscape"
   xmlns:sodipodi="http://sodipodi.sourceforge.net/DTD/sodipodi-0.dtd"
   xmlns="http://www.w3.org/2000/svg"
   xmlns:svg="http://www.w3.org/2000/svg"><sodipodi:namedview
     id="namedview1"
     pagecolor="#ffffff"
     bordercolor="#000000"
     borderopacity="0.25"
     inkscape:showpageshadow="2"
     inkscape:pageopacity="0.0"
     inkscape:pagecheckerboard="0"
     inkscape:deskcolor="#d1d1d1"
     inkscape:document-units="mm"
     inkscape:zoom="1.01"
     inkscape:cx="229.20792"
     inkscape:cy="126.73267"
     inkscape:window-width="1920"
     inkscape:window-height="1009"
     inkscape:window-x="-8"
     inkscape:window-y="-8"
     inkscape:window-maximized="1"
     inkscape:current-layer="layer1" /><defs
     id="defs1"><linearGradient
       id="gradient_0"
       gradientUnits="userSpaceOnUse"
       x1="456.97791"
       y1="308.09238"
       x2="454.91217"
       y2="304.20056"
       gradientTransform="translate(2)"><stop
         offset="0"
         stop-color="#F9F8F8"
         stop-opacity="0.57254905"
         id="stop32" /><stop
         offset="1"
         stop-color="#FBFBF9"
         stop-opacity="0.60392159"
         id="stop33" /></linearGradient><style
       type="text/css"
       id="style1"><![CDATA[
      .nodo { fill: #38be7f; stroke: #093e4d; stroke-width: 6; }
      .puente { fill: none; stroke: #093e4d; stroke-width: 28; stroke-linecap: round; stroke-linejoin: round; }
    ]]></style><style
       type="text/css"
       id="style1-0"><![CDATA[
      .rombo { fill: none; stroke: #093e4d; stroke-width: 10; stroke-linejoin: round; stroke-linecap: round; }
      .rejilla { fill: none; stroke: #38be7f; stroke-width: 5; stroke-linecap: round; opacity: 0.85; }
      .eje-teal { fill: none; stroke: #093e4d; stroke-width: 5; stroke-linecap: round; opacity: 0.9; }
      .eje-coral { fill: none; stroke: #ff6b6b; stroke-width: 6; stroke-linecap: round; }
      .nodo-coral { fill: #ff6b6b; stroke: #093e4d; stroke-width: 3; }
    ]]></style></defs><g
     inkscape:label="Capa 1"
     inkscape:groupmode="layer"
     id="layer1"
     transform="translate(-169.21159,-273.98483)"><g
       id="g2"
       transform="rotate(22.333572,533.76721,174.97943)"><g
         id="g3"
         transform="matrix(0.11779155,-0.41395673,0.41395673,0.11779155,103.43052,529.13415)"><g
           id="g4"
           transform="matrix(0.69581261,0,0,0.69581261,138.13384,130.31959)"
           style="stroke-width:20.3207;stroke-dasharray:none"><g
             inkscape:label="Marca"
             id="layer-marca-9"
             transform="translate(-6.287128,77.541252)"
             style="stroke-width:20.3207;stroke-dasharray:none"><g
               id="g5"><g
                 id="text1"
                 style="font-size:96px;line-height:0;font-family:'Pokemon Solid';-inkscape-font-specification:'Pokemon Solid';letter-spacing:-1.8px;fill:#ffffff;stroke:#ff3d33;stroke-width:0;stroke-linecap:round;stroke-linejoin:round;stroke-miterlimit:0"
                 aria-label="bioenlace"
                 transform="matrix(2.065799,2.6235323,-2.6235323,2.065799,694.90936,-968.19547)"><path
                   style="font-weight:bold;font-family:MuseoModerno;-inkscape-font-specification:'MuseoModerno Bold';fill:#093e4d;stroke:#093e4d"
                   d="m 308.04109,364.94201 q -7.968,0 -13.92,-3.264 -5.952,-3.264 -9.216,-9.312 -3.264,-6.048 -3.264,-14.112 v -44.544 h 14.88 v 26.208 h 0.288 q 1.44,-2.016 3.552,-3.456 2.208,-1.536 4.8,-2.304 2.688,-0.768 5.664,-0.768 7.008,0 12.288,3.168 5.28,3.168 8.256,8.736 3.072,5.568 3.072,13.056 0,5.76 -1.824,10.656 -1.824,4.896 -5.28,8.544 -3.36,3.552 -8.256,5.472 -4.8,1.92 -11.04,1.92 z m 0,-12.864 q 3.456,0 5.952,-1.632 2.496,-1.728 3.84,-4.608 1.44,-2.976 1.44,-6.624 0,-3.648 -1.44,-6.528 -1.344,-2.88 -3.84,-4.512 -2.496,-1.728 -5.952,-1.728 -3.456,0 -6.048,1.728 -2.496,1.632 -3.84,4.512 -1.344,2.88 -1.344,6.528 0,3.648 1.344,6.624 1.344,2.88 3.84,4.608 2.592,1.632 6.048,1.632 z m 33.43205,11.712 v -49.248 h 14.976 v 49.248 z m 7.488,-54.816 q -3.552,0 -6.144,-2.592 -2.592,-2.592 -2.592,-6.144 0,-3.552 2.592,-6.144 2.592,-2.688 6.144,-2.688 3.552,0 6.144,2.688 2.592,2.592 2.592,6.144 0,3.552 -2.592,6.144 -2.592,2.592 -6.144,2.592 z m 41.01604,55.968 q -7.584,0 -13.632,-3.36 -6.048,-3.36 -9.6,-9.216 -3.456,-5.856 -3.456,-13.152 0,-7.392 3.456,-13.152 3.552,-5.856 9.6,-9.216 6.048,-3.456 13.632,-3.456 7.584,0 13.536,3.456 6.048,3.36 9.504,9.216 3.552,5.76 3.552,13.152 0,7.296 -3.552,13.152 -3.456,5.856 -9.504,9.216 -6.048,3.36 -13.536,3.36 z m 0,-12.96 q 3.552,0 6.144,-1.728 2.592,-1.728 4.032,-4.608 1.44,-2.88 1.44,-6.528 0,-3.552 -1.44,-6.432 -1.44,-2.88 -4.032,-4.608 -2.592,-1.728 -6.144,-1.728 -3.552,0 -6.24,1.728 -2.592,1.728 -4.032,4.608 -1.44,2.88 -1.44,6.432 0,3.648 1.44,6.528 1.44,2.88 4.032,4.608 2.688,1.728 6.24,1.728 z"
                   id="path1" /><path
                   style="font-weight:300;font-family:MuseoModerno;-inkscape-font-specification:'MuseoModerno Light';fill:#093e4d;stroke:#093e4d"
                   d="m 450.28911,363.79001 q -7.872,0 -14.112,-2.88 -6.144,-2.976 -9.792,-8.448 -3.552,-5.472 -3.552,-13.152 0,-7.104 2.88,-12.864 2.88,-5.856 8.064,-9.312 5.28,-3.456 12.288,-3.456 7.2,0 12.192,3.168 4.992,3.168 7.584,8.544 2.592,5.376 2.592,12.096 0,0.96 -0.096,2.112 -0.096,1.152 -0.288,2.016 h -38.112 q 0.288,5.376 3.072,9.024 2.784,3.648 7.2,5.472 4.512,1.824 9.696,1.824 h 12.384 v 5.856 z m -20.352,-26.976 h 31.68 q 0,-1.92 -0.384,-4.224 -0.384,-2.4 -1.44,-4.704 -0.96,-2.304 -2.784,-4.224 -1.728,-1.92 -4.512,-3.072 -2.688,-1.248 -6.624,-1.248 -3.648,0 -6.624,1.536 -2.976,1.536 -4.992,4.128 -2.016,2.496 -3.168,5.568 -1.056,3.072 -1.152,6.24 z m 48.69599,26.976 v -28.512 q 0,-6.72 2.976,-11.52 3.072,-4.896 8.16,-7.488 5.088,-2.688 11.232,-2.688 6.24,0 11.232,2.688 5.088,2.592 8.064,7.488 3.072,4.8 3.072,11.52 v 28.512 h -6.72 v -28.224 q 0,-5.088 -2.208,-8.64 -2.208,-3.648 -5.856,-5.568 -3.552,-1.92 -7.68,-1.92 -4.032,0 -7.584,1.92 -3.552,1.824 -5.76,5.472 -2.208,3.552 -2.208,8.736 v 28.224 z m 57.72008,0 v -70.08 h 6.72 v 70.08 z m 40.6321,1.248 q -7.392,0 -12.672,-3.456 -5.28,-3.456 -8.064,-9.216 -2.784,-5.856 -2.784,-13.056 0,-7.296 3.072,-13.056 3.072,-5.856 8.736,-9.216 5.76,-3.36 13.632,-3.36 7.584,0 13.056,3.36 5.568,3.36 8.544,9.024 3.072,5.664 3.072,12.768 v 24.96 h -6.624 v -10.944 h -0.288 q -1.344,2.88 -4.032,5.76 -2.688,2.784 -6.624,4.608 -3.84,1.824 -9.024,1.824 z m 1.44,-5.76 q 5.376,0 9.504,-2.592 4.128,-2.688 6.432,-7.2 2.4,-4.608 2.4,-10.368 0,-5.664 -2.208,-10.08 -2.208,-4.416 -6.24,-7.008 -4.032,-2.592 -9.6,-2.592 -5.76,0 -9.888,2.688 -4.128,2.592 -6.336,7.2 -2.208,4.512 -2.208,10.272 0,5.376 2.112,9.888 2.112,4.512 6.144,7.2 4.128,2.592 9.888,2.592 z m 61.944,4.512 q -7.584,0 -13.536,-3.264 -5.952,-3.264 -9.408,-8.736 -3.456,-5.568 -3.456,-12.48 0,-6.912 3.456,-12.384 3.456,-5.568 9.408,-8.832 5.952,-3.264 13.536,-3.264 h 5.568 v 5.856 h -6.048 q -5.28,0 -9.6,2.496 -4.32,2.4 -6.912,6.624 -2.592,4.224 -2.592,9.504 0,5.28 2.592,9.504 2.592,4.224 6.912,6.72 4.32,2.4 9.6,2.4 h 6.048 v 5.856 z m 39.19205,0 q -7.872,0 -14.112,-2.88 -6.144,-2.976 -9.792,-8.448 -3.552,-5.472 -3.552,-13.152 0,-7.104 2.88,-12.864 2.88,-5.856 8.064,-9.312 5.28,-3.456 12.288,-3.456 7.2,0 12.192,3.168 4.992,3.168 7.584,8.544 2.592,5.376 2.592,12.096 0,0.96 -0.096,2.112 -0.096,1.152 -0.288,2.016 h -38.112 q 0.288,5.376 3.072,9.024 2.784,3.648 7.2,5.472 4.512,1.824 9.696,1.824 h 12.384 v 5.856 z m -20.352,-26.976 h 31.68 q 0,-1.92 -0.384,-4.224 -0.384,-2.4 -1.44,-4.704 -0.96,-2.304 -2.784,-4.224 -1.728,-1.92 -4.512,-3.072 -2.688,-1.248 -6.624,-1.248 -3.648,0 -6.624,1.536 -2.976,1.536 -4.992,4.128 -2.016,2.496 -3.168,5.568 -1.056,3.072 -1.152,6.24 z"
                   id="path2" /></g><g
                 id="marca-4"
                 inkscape:label="Rombo rejilla punta"
                 style="stroke-width:20.3207;stroke-dasharray:none"
                 transform="rotate(-87.284188,261.48329,251.64419)"><!-- Top (256,96), Right (416,256), Bottom (256,416), Left (96,256) --><path
                   id="rombo"
                   class="rombo"
                   d="M 78.728413,208.20326 285.59138,116.50967 377.28496,323.37264 170.42199,415.06622 Z"
                   style="fill:none;stroke:#093e4d;stroke-width:10.2228;stroke-linecap:round;stroke-linejoin:round;stroke-dasharray:none" /><!-- Rejilla minima: solo cruz por el centro (2 lineas) --><path
                   id="cuerda-v-inf"
                   class="eje-teal"
                   d="M 228.00668,265.78795 78.728413,208.20326"
                   style="opacity:0.9;fill:none;stroke:#ff6b6b;stroke-width:26.7811;stroke-linecap:round;stroke-dasharray:none;stroke-opacity:1" /><!-- Punta superior: eje coral del centro hasta el borde inferior del circulo (r=16, cy=96 => y=112) --><path
                   id="cuerda-v-sup-coral"
                   class="eje-coral"
                   d="m 228.00668,265.78795 134.35046,51.82622"
                   style="fill:none;stroke:#ff6b6b;stroke-width:26.7811;stroke-linecap:round;stroke-dasharray:none" /><path
                   id="nodo-punta"
                   style="fill:#ff6b6b;stroke:#ff6b6b;stroke-width:41.9007"
                   class="nodo-coral"
                   transform="rotate(111.09432)"
                   d="m 181.91669,-468.38605 a 16,16 0 0 1 -16,16 16,16 0 0 1 -16,-16 16,16 0 0 1 16,-16 16,16 0 0 1 16,16 z" /><path
                   id="nodo-punta-1"
                   style="fill:#ff6b6b;stroke:#ff6b6b;stroke-width:41.9007"
                   class="nodo-coral"
                   transform="rotate(111.09432)"
                   d="m 183.68507,-153.12012 a 16,16 0 0 1 -16,16 16,16 0 0 1 -16,-16 16,16 0 0 1 16,-16 16,16 0 0 1 16,16 z" /></g></g></g></g></g></g></g></svg>
