<?xml version="1.0" encoding="utf-8" ?><svg xmlns="http://www.w3.org/2000/svg" xmlns:xlink="http://www.w3.org/1999/xlink" width="1024" height="1024" viewBox="0 0 1024 1024"><path fill="#38BE7F" d="M562.653 413.647C555.362 405.833 536.043 388.955 531.73 381.425C530.203 378.787 529.413 375.788 529.441 372.74C529.519 367.537 532.134 362.619 535.976 359.196C539.869 355.698 545.041 353.973 550.255 354.434C552.947 354.69 555.444 355.205 557.594 356.833C565.366 362.716 572.052 370.846 579.088 377.52C592.504 390.247 606.548 402.15 617.97 416.766C638.958 443.321 648.268 477.257 643.769 510.804C640.957 533.068 632.217 554.383 618.923 572.446C611.958 581.909 604.675 591.251 591.336 589.411C585.743 588.651 580.713 585.612 577.437 581.015C567.593 567.097 578.089 556.033 587.013 546.358C595.397 537.267 599.752 525.889 602.871 514.03C592.625 523.042 583.279 533.208 573.371 542.6C570.302 545.509 567.35 548.568 564.474 551.668C561.68 549.42 560.592 548.363 558.151 545.722C568.585 536.354 579.411 524.97 589.439 515.027C594.161 510.345 601.768 503.187 605.835 498.533L605.459 483.329C600.11 487.641 592.896 495.209 587.782 500.191C575.108 512.576 562.522 525.051 550.025 537.615C547.17 535.39 546.695 534.764 544.477 531.98C546.73 528.783 561.358 514.803 564.904 511.306L603.674 472.655C602.521 468.645 601.349 464.221 600.001 460.305C580.702 478.755 562.13 498.243 542.917 516.81C540.632 519.018 538.401 521.473 536.061 523.598C533.973 521.638 532.912 520.651 531.099 518.35C537.401 510.93 549.078 499.936 556.279 492.786C569.911 479.162 583.417 465.411 596.793 451.534C594.351 447.18 591.931 443.252 588.44 439.641C585.113 436.266 582.513 432.802 578.928 429.254C573.963 424.337 567.349 418.595 562.653 413.647Z"/><path fill="#38BE7F" d="M429.86 374.77C438.902 392.375 455.794 404.696 468.378 419.893C473.38 425.932 486.025 434.868 488.809 441.945C497.152 463.154 469.881 477.172 456.201 459.811C439.623 441.468 416.046 424.289 402.265 403.864C395.334 393.492 390.122 382.07 386.83 370.037C377.196 335.575 380.733 299.212 398.819 268.15C407.074 253.974 423.777 227.267 443.406 239.819C448.74 243.219 452.436 248.669 453.623 254.882C454.734 260.697 452.77 265.222 449.54 269.858L449.128 270.44C447.533 271.446 439.569 279.815 438.743 281.45C437.562 282.893 434.994 286.47 434.202 288.14C428.964 297.021 426.245 301.65 423.917 311.839C427.771 308.087 432.759 302.603 436.717 299.194C438.049 298.331 441.95 294.196 443.383 292.809C445.042 291.294 447.127 289.204 448.705 287.587C451.461 284.947 454.585 281.959 457.182 279.18C458.838 277.523 460.108 276.265 461.585 274.404L462.972 272.935C465.556 272.866 469.302 276.61 469.952 278.884C465.473 282.717 461.202 286.785 457.156 291.072C452.897 295.499 448.446 299.816 444.234 304.211C441.331 306.998 429.502 318.133 427.781 320.616C425.704 322.716 421.551 326.267 421.35 329.21C421.551 333.675 421.398 337.85 421.634 342.499C424.385 339.996 426.696 337.794 429.348 335.174C430.521 334.445 432.421 332.376 433.702 331.286C436.817 328.88 446.98 318.137 450.248 314.804C451.683 313.385 453.157 311.988 454.556 310.537C457.15 307.887 459.976 305.456 462.465 302.708C463.624 301.933 465.36 300.147 466.323 299.091C468.586 297.519 475.907 289.559 478.073 287.209C479.786 287.327 481.84 289.857 483.051 291.245C483.47 291.724 483.885 292.207 484.296 292.692C482.787 294.355 480.283 297.267 478.733 298.702C477.766 299.398 477.606 299.618 476.742 300.488L476.361 300.865C472.948 304.278 469.548 307.449 466.091 310.785L465.379 311.422C465.198 311.696 465.017 311.971 464.836 312.246C463.998 312.959 463.507 313.388 462.767 314.22C461.75 315.156 460.69 316.068 459.803 317.126C455.657 320.911 450.878 326.031 446.894 330.105C446.048 330.955 445.239 331.801 444.367 332.627C443.819 333.246 443.644 333.454 443.195 334.139C441.737 335.341 440.379 336.661 439.135 338.085C437.783 339.388 436.442 340.702 435.112 342.028C434.025 343.089 432.885 344.169 431.841 345.264C429.118 347.567 425.29 351.46 422.753 354.08C424.175 358.721 424.946 361.936 426.694 366.603C430.726 362.521 436.061 357.475 439.752 353.2C440.687 352.512 440.965 352.097 441.725 351.201C442.83 350.399 443.412 349.632 444.335 348.627C445.421 347.921 446.475 346.602 447.32 345.604C449.704 344.119 474.119 319.06 476.659 316.039C479.395 313.786 487.063 306.152 489.332 303.473C490.256 302.279 490.148 302.277 491.531 301.727C493.964 302.277 495.924 304.887 497.769 306.812C486.781 318.083 475.726 329.288 464.602 340.424C453.358 351.771 441.51 363.92 429.86 374.77Z"/><path fill="#04313E" d="M191.273 640.564C203.499 640.126 238.633 639.14 248.876 641.62C253.693 642.787 258.208 645.021 261.792 648.493C266.798 653.34 269.373 660.371 269.436 667.277C269.506 674.929 266.346 681.663 260.949 686.932C260.054 687.806 259.097 688.626 258.149 689.441C264.919 692.596 271.551 697.482 274.099 704.834C276.376 711.407 275.808 718.989 272.739 725.211C269.347 732.088 262.792 736.484 255.657 738.776C243.337 742.732 210.176 740.648 195.651 740.394L194.466 739.893L190.987 743.025C191.238 720.249 191.318 697.472 191.226 674.695C191.213 666.487 190.62 648.203 191.273 640.564ZM199.093 735.311L200.576 735.52C204.193 731.875 210.462 726.588 214.447 722.992C222.557 722.956 244.049 725.038 250.952 719.851C257.166 715.18 255.319 702.113 245.479 700.84C234.467 699.416 222.784 700.081 211.433 700.134C211.004 704.366 211.402 715.692 211.452 720.329C207.944 725.193 203.025 730.714 199.093 735.311ZM210.901 685.356C212.592 683.829 213.705 682.964 215.514 681.591C225.724 680.906 236.12 682.869 245.591 679.888L246.341 679.66C249.408 677.257 250.592 675.144 250.893 671.25C251.54 662.884 245.183 659.32 237.75 659.177C228.702 659.003 219.858 658.89 210.897 659.045C210.823 667.786 211.042 676.547 210.901 685.356Z"/><path fill="#FEFDFE" d="M199.093 735.311L200.576 735.52C198.927 737.457 197.594 738.741 195.651 740.394L194.466 739.893C195.721 738.514 197.591 736.221 199.093 735.311Z"/><path fill="#04313E" d="M589.612 236.643C602.197 235.56 610.566 247.065 617.474 255.902C632.222 274.768 640.424 297.116 642.171 320.947C644.305 350.055 636.581 383.901 617.075 406.37C616.06 405.003 614.564 403.316 613.445 401.973C605.539 393.63 595.852 385.182 588.435 376.63L588.751 376.111C592.897 369.28 595.99 363.94 598.613 356.244C607.06 330.985 602.605 303.19 586.686 281.836C581.251 274.672 573.1 270.642 571.382 261.281C568.775 247.076 576.529 239.235 589.612 236.643Z"/><path fill="#04313E" d="M410.15 422.272C411.402 422.685 437.239 448.418 440.104 451.456C416.762 478.493 417.168 516.892 437.341 546.118C443.42 554.925 456.379 559.207 452.919 573.739C451.308 580.507 447.214 584.549 441.58 588.058C425.859 594.773 419.328 586.015 410.324 575.25C393.647 555.31 384.815 532.244 382.935 506.456C380.451 475.892 390.245 445.598 410.15 422.272Z"/><path fill="#38BE7F" d="M565.09 260.054C565.731 260.738 569.282 269.537 570.524 271.185C575.633 277.969 581.615 283.198 587.157 289.663C583.232 294.098 577.423 299.289 573.04 303.566C566.197 310.345 559.407 317.178 552.673 324.065C544.014 332.838 465.622 412.134 463.362 412.105C457.52 405.903 443.445 391.449 438.921 385.388C443.202 380.504 449.112 374.799 453.775 370.084L487.573 336.541C513.035 311.3 539.262 284.722 565.09 260.054Z"/><path fill="#38BE7F" d="M561.426 414.501L562.079 415.034C569.448 420.863 580.688 433.131 587.119 440.329C585.774 442.786 565.938 461.612 562.121 465.421C527.307 499.519 492.719 533.847 458.359 568.402C456.147 550.362 446.503 549.355 437.944 536.941C443.487 530.589 454.855 520.284 461.22 513.955L509.877 465.412L543.471 432.043C547.346 428.157 557.426 417.368 561.426 414.501Z"/><path fill="#04313E" d="M353.07 663.753C374.532 662.156 393.255 678.192 394.975 699.645C396.696 721.098 380.767 739.913 359.325 741.756C337.707 743.615 318.706 727.528 316.971 705.9C315.237 684.273 331.432 665.363 353.07 663.753ZM359.924 724.784C371.381 722.212 375.769 714.282 376.015 703C376.347 687.7 367.543 679.022 352.126 680.186C337.587 683.705 333.942 695.876 336.622 709.232C339.034 721.252 348.442 726.186 359.924 724.784Z"/><path fill="#38BE7F" d="M633.3 666.22C634.135 666.202 634.97 666.2 635.804 666.215C643.56 666.335 650.71 668.744 656.088 674.544C666.787 686.083 665.73 701.85 665.701 716.355C665.717 724.505 665.662 732.655 665.536 740.804C662.626 740.801 659.493 740.575 656.571 740.425C656.172 737.394 656.064 733.893 655.894 730.797C642.207 745.335 616.277 746.765 606.737 727.121C597.524 693.411 634.996 695.792 656.126 696.933C655.705 692.63 655.038 688.057 652.43 684.528C641.538 669.793 623.852 675.444 611.827 683.343C610.557 680.49 609.332 677.429 608.118 674.534C615.631 669.17 624.254 667.005 633.3 666.22ZM639.238 732.392C655.883 727.511 656.065 718.884 655.848 704.055C647.187 703.847 639.323 702.916 630.567 703.623C625.557 704.536 619.345 706.68 616.254 710.979C614.284 713.752 613.557 717.22 614.249 720.55C616.781 732.757 629.45 733.341 639.238 732.392Z"/><path fill="#38BE7F" d="M436.628 666.226L437.331 666.204C460.924 665.711 472.556 684.728 472.477 706.412C459.716 706.739 446.246 706.117 433.435 706.263C426.937 706.337 419.954 705.856 413.528 706.488C413.986 708.916 414.613 711.309 415.405 713.649C421.274 731.1 438.331 734.807 454.059 729.149C457.697 727.112 459.594 725.306 462.765 722.559C464.717 724.228 466.125 725.737 467.893 727.578C467.571 728.022 467.242 728.461 466.906 728.895C456.393 742.598 431.381 743.636 418.27 733.155C401.973 720.126 399.723 693.895 412.737 677.828C419.124 669.943 426.932 667.189 436.628 666.226ZM413.546 698.505C422.847 698.1 433.866 698.559 443.375 698.542L463.9 698.491C461.76 689.796 459.935 683.304 451.782 678.224C445.939 674.583 441.186 673.792 434.397 674.605C420.972 677.347 415.974 685.948 413.546 698.505Z"/><path fill="#38BE7F" d="M787.995 666.203C812.251 665.529 823.952 684.094 824.014 706.499C804.49 706.643 783.977 705.887 764.612 706.165C766.782 726.489 786.703 737.934 805.213 728.993C808.275 727.3 811.143 724.977 813.946 722.847C816.53 725.025 817.286 725.623 819.379 728.325C813.606 734.551 805.852 738.582 797.439 739.732C787.72 741.038 777.58 739.271 769.722 733.146C761.935 726.959 756.923 717.932 755.79 708.05C753.461 686.409 765.683 668.258 787.995 666.203ZM764.862 698.564C774.076 698.339 783.999 698.488 793.25 698.554C800.749 698.585 808.249 698.563 815.748 698.487C811.504 684.693 804.034 672.733 787.559 674.116C772.181 676.976 768.436 684.742 764.862 698.564Z"/><path fill="#38BE7F" d="M520.036 666.16C553.721 664.54 553.379 690.697 553.228 715.711C553.204 724.02 553.117 732.329 552.968 740.636C549.918 740.795 546.946 740.565 543.898 740.398C543.201 724.438 545.391 706.727 542.753 691.135C540.151 675.76 527.361 672.842 514.269 676.245C503.064 681.34 499.799 690.106 499.559 701.739C499.29 714.773 499.423 727.823 499.464 740.861C496.042 740.859 493.669 740.767 490.263 740.464C489.585 716.88 490.061 690.786 490.064 667.042C493.271 666.967 495.415 667.06 498.614 667.283C498.53 671.32 498.524 674.387 498.773 678.404C506.489 670.712 509.025 668.211 520.036 666.16Z"/><path fill="#38BE7F" d="M713.796 666.683C727.135 665.243 736.732 670.079 746.21 678.981C744.646 681.537 742.921 683.732 741.115 686.115C731.4 678.05 723.327 671.931 709.682 676.276C702.77 678.533 697.104 683.555 694.033 690.146C683.338 712.637 702.817 740.367 728.993 728.983C734.735 725.722 735.894 724.425 740.567 719.589C742.746 722.239 744.078 724.165 745.993 727.018C740.213 733.676 732.285 738.759 723.467 740.067C713.616 741.614 703.558 739.105 695.587 733.113C670.174 713.937 679.848 670.712 713.796 666.683Z"/><path fill="#04313E" d="M287.196 666.14C292.731 665.845 299.437 665.908 304.97 665.984C304.886 690.811 306.221 715.465 304.761 740.415C298.829 740.248 292.959 740.44 287.021 740.208C287.015 718.215 287.433 696.249 287.016 674.252C286.964 671.539 287.037 668.848 287.196 666.14Z"/><path fill="#38BE7F" d="M576.992 636.149C580.391 635.873 582.628 635.92 586.024 636.003C587.292 665.178 585.676 695.591 586.504 724.859C586.649 729.97 586.571 735.445 586.406 740.57C583.329 740.672 580.381 740.553 577.308 740.456C576.805 735.349 577.006 727.523 577.009 722.194L577.026 690.86C577.015 674.133 575.989 652.256 576.992 636.149Z"/><path fill="#FEFDFE" fill-opacity="0.74901962" d="M457.156 291.072C461.202 286.785 465.473 282.717 469.952 278.884C471.943 283.007 473.149 286.524 478.073 287.209C475.907 289.559 468.586 297.519 466.323 299.091C465.591 297.965 461.683 297.919 460.688 299.299C459.881 300.418 457.9 299.89 457.059 300.562C455.359 303.173 452.61 304.454 451.127 307.284C450.36 308.748 449.187 308.533 448.368 309.242C448.264 309.638 447.591 314.422 447.986 314.967C448.265 315.353 449.391 314.758 450.248 314.804C446.98 318.137 436.817 328.88 433.702 331.286C434.247 327.808 433.918 328.266 430.978 327.263C429.912 326.899 428.369 322.005 427.781 320.616C429.502 318.133 441.331 306.998 444.234 304.211C444.424 304.994 444.241 307.114 444.48 307.268L444.627 307.232C444.777 307.387 445.881 309.066 446.59 308.438C447.228 307.494 445.133 307.134 445.76 305.526C446.548 303.505 448.772 303.943 449.455 302.467C450.146 300.974 452.745 297.928 454.115 297.454L454.669 297.855C454.896 298.757 453.618 300.122 454.468 300.52C456.402 300.333 456.299 297.735 457.648 296.662C461.362 293.709 459.357 292.997 457.156 291.072Z"/><path fill="#04313E" d="M294.411 632.568C310.938 632.129 313.259 650.821 298.613 655.559C297.042 655.626 291.773 655.95 290.698 655.191C279.989 647.623 281.807 635.567 294.411 632.568Z"/><path fill="#FEFDFE" fill-opacity="0.66666669" d="M449.128 270.44C451.972 270.77 455.01 270.512 457.001 273.006C458.273 274.6 459.72 274.246 461.585 274.404C460.108 276.265 458.838 277.523 457.182 279.18C455.654 278.189 454.044 277.431 452.675 276.185C451.778 275.368 451.35 276.02 450.208 275.276C450.39 275.257 445.47 278.612 445.476 278.6C444.485 280.925 443.95 283.13 446.785 284.362C447.761 284.787 447.836 286.39 448.705 287.587C447.127 289.204 445.042 291.294 443.383 292.809C443.311 291.949 443.554 290.005 442.765 289.514C439.742 287.632 439.321 284.145 438.743 281.45C439.569 279.815 447.533 271.446 449.128 270.44Z"/><path fill="#FEFDFE" fill-opacity="0.44313726" d="M464.836 312.246C464.907 312.397 464.979 312.549 465.05 312.7C465.108 312.832 465.101 312.984 465.033 313.11C464.632 313.869 463.316 313.989 463.953 315.327C464.27 315.992 464.254 317.531 464.159 318.255C463.731 321.508 467.204 319.477 468.325 318.197C469.231 317.164 471.69 316.625 473.092 316.231C471.394 317.956 468.66 319.927 466.22 320.676C465.083 321.026 460.953 326.103 460.191 327.335C458.054 330.794 452.653 337.831 449.311 339.718C448.299 340.057 446.683 340.746 446.213 341.714C445.795 342.576 445.448 342.881 444.456 343.145C444.217 343.209 443.613 343.249 443.368 343.374C442.303 343.918 441.428 343.882 441.005 342.64C440.952 342.411 441.129 342.132 441.3 342.018C442.886 340.969 443.427 339.025 443.895 337.297C444.013 336.861 444.776 336.019 445.284 335.968C446.772 335.819 447.401 334.523 447.885 333.282C448.076 332.875 448.537 332.338 448.986 332.299C451.091 332.119 450.928 331.187 451.567 329.545C451.726 329.136 452.461 328.375 452.988 328.32C454.551 328.157 455.314 327.165 456.409 326.189C457.344 325.332 459.508 324.103 459.749 322.753C460.114 320.707 460.377 320.385 462.3 319.599C463.978 318.554 462.649 316.45 462.767 314.22C463.507 313.388 463.998 312.959 464.836 312.246Z"/><path fill="#FEFDFE" fill-opacity="0.34901962" d="M477.174 312.944C479.549 312.08 477.037 315.23 476.659 316.039C474.119 319.06 449.704 344.119 447.32 345.604C446.126 345.193 444.874 345.938 444.274 345.16C444.335 344.766 448.226 341.502 449.311 339.718C452.653 337.831 458.054 330.794 460.191 327.335C460.953 326.103 465.083 321.026 466.22 320.676C468.66 319.927 471.394 317.956 473.092 316.231C474.696 314.573 474.841 316.149 477.174 312.944Z"/><path fill="#FEFDFE" fill-opacity="0.33725491" d="M459.803 317.126C459.706 318.533 459.622 319.012 459.74 320.395L459.603 320.439C459.622 320.507 459.64 320.575 459.659 320.642C460.583 320.392 460.27 319.996 462.3 319.599C460.377 320.385 460.114 320.707 459.749 322.753C459.508 324.103 457.344 325.332 456.409 326.189C455.314 327.165 454.551 328.157 452.988 328.32C452.461 328.375 451.726 329.136 451.567 329.545C450.928 331.187 451.091 332.119 448.986 332.299C448.537 332.338 448.076 332.875 447.885 333.282C447.401 334.523 446.772 335.819 445.284 335.968C444.776 336.019 444.013 336.861 443.895 337.297C443.427 339.025 442.886 340.969 441.3 342.018C441.129 342.132 440.952 342.411 441.005 342.64C441.428 343.882 442.303 343.918 443.368 343.374C443.613 343.249 444.217 343.209 444.456 343.145C445.448 342.881 445.795 342.576 446.213 341.714C446.683 340.746 448.299 340.057 449.311 339.718C448.226 341.502 444.335 344.766 444.274 345.16C444.874 345.938 446.126 345.193 447.32 345.604C446.475 346.602 445.421 347.921 444.335 348.627C439.211 346.879 441.656 349.505 438.195 348.43C434.822 347.383 437.713 344.283 439.177 342.731C444.07 335.686 441.309 341.319 443.195 334.139C443.644 333.454 443.819 333.246 444.367 332.627C446.812 339.083 446.698 331.348 446.894 330.105C450.878 326.031 455.657 320.911 459.803 317.126Z"/><path fill="#FEFDFE" fill-opacity="0.5529412" d="M476.361 300.865L476.742 300.488C477.606 299.618 477.766 299.398 478.733 298.702C481.504 298.793 487.506 301.462 489.332 303.473C487.063 306.152 479.395 313.786 476.659 316.039C477.037 315.23 479.549 312.08 477.174 312.944C475.451 313.224 473.718 313.096 472.515 314.51C471.81 315.339 468.579 317.154 467.652 317.161C467.572 316.345 467.628 316.784 467.3 316.321C467.142 316.304 466.984 316.287 466.826 316.269C468.156 313.249 468.052 313.984 465.379 311.422L466.091 310.785C466.985 311.144 468.507 311.887 468.967 313.33C469.93 316.354 471.741 311.158 475.003 311.022C475.983 310.981 481.915 307.942 482.365 306.952C482.859 305.864 482.158 304.584 480.87 304.248C477.117 303.046 478.055 305.017 476.361 300.865Z"/><path fill="#FEFDFE" fill-opacity="0.4627451" d="M427.781 320.616C428.369 322.005 429.912 326.899 430.978 327.263C433.918 328.266 434.247 327.808 433.702 331.286C432.421 332.376 430.521 334.445 429.348 335.174C427.521 332.711 424.354 333.67 422.582 330.42C422.694 330.626 421.095 328.945 421.35 329.21C421.551 326.267 425.704 322.716 427.781 320.616Z"/><path fill="#FEFDFE" fill-opacity="0.60000002" d="M466.091 310.785C469.548 307.449 472.948 304.278 476.361 300.865C478.055 305.017 477.117 303.046 480.87 304.248C482.158 304.584 482.859 305.864 482.365 306.952C481.915 307.942 475.983 310.981 475.003 311.022C471.741 311.158 469.93 316.354 468.967 313.33C468.507 311.887 466.985 311.144 466.091 310.785Z"/><path fill="#FEFDFE" fill-opacity="0.51372552" d="M438.743 281.45C439.321 284.145 439.742 287.632 442.765 289.514C443.554 290.005 443.311 291.949 443.383 292.809C441.95 294.196 438.049 298.331 436.717 299.194C436.569 297.981 435.961 295.195 435.919 294.245C435.787 291.276 434.409 290.838 434.202 288.14C434.994 286.47 437.562 282.893 438.743 281.45Z"/><path fill="#FEFDFE" fill-opacity="0.79607844" d="M448.705 287.587C447.836 286.39 447.761 284.787 446.785 284.362C443.95 283.13 444.485 280.925 445.476 278.6C445.47 278.612 450.39 275.257 450.208 275.276C451.35 276.02 451.778 275.368 452.675 276.185C454.044 277.431 455.654 278.189 457.182 279.18C454.585 281.959 451.461 284.947 448.705 287.587Z"/><path fill="#FEFDFE" fill-opacity="0.65882355" d="M450.248 314.804C449.391 314.758 448.265 315.353 447.986 314.967C447.591 314.422 448.264 309.638 448.368 309.242C449.187 308.533 450.36 308.748 451.127 307.284C452.61 304.454 455.359 303.173 457.059 300.562C457.9 299.89 459.881 300.418 460.688 299.299C461.683 297.919 465.591 297.965 466.323 299.091C465.36 300.147 463.624 301.933 462.465 302.708C461.223 302.235 460.708 301.331 459.461 302.041C455.762 304.147 453.616 305.659 451.609 309.49C450.279 312.03 452.343 310.971 454.556 310.537C453.157 311.988 451.683 313.385 450.248 314.804Z"/><path fill="#FEFDFE" fill-opacity="0.6901961" d="M457.156 291.072C459.357 292.997 461.362 293.709 457.648 296.662C456.299 297.735 456.402 300.333 454.468 300.52C453.618 300.122 454.896 298.757 454.669 297.855L454.115 297.454C452.745 297.928 450.146 300.974 449.455 302.467C448.772 303.943 446.548 303.505 445.76 305.526C445.133 307.134 447.228 307.494 446.59 308.438C445.881 309.066 444.777 307.387 444.627 307.232L444.48 307.268C444.241 307.114 444.424 304.994 444.234 304.211C448.446 299.816 452.897 295.499 457.156 291.072Z"/><path fill="#FEFDFE" fill-opacity="0.050980393" d="M562.653 413.647C567.349 418.595 573.963 424.337 578.928 429.254C582.513 432.802 585.113 436.266 588.44 439.641L587.119 440.329C580.688 433.131 569.448 420.863 562.079 415.034L561.426 414.501L562.653 413.647Z"/><path fill="#FEFDFE" fill-opacity="0.019607844" d="M421.35 329.21C421.095 328.945 422.694 330.626 422.582 330.42C424.354 333.67 427.521 332.711 429.348 335.174C426.696 337.794 424.385 339.996 421.634 342.499C421.398 337.85 421.551 333.675 421.35 329.21Z"/><path fill="#FEFDFE" fill-opacity="0.21960784" d="M435.112 342.028C436.442 340.702 437.783 339.388 439.135 338.085C439.265 340.086 439.27 340.81 439.177 342.731C437.713 344.283 434.822 347.383 438.195 348.43C441.656 349.505 439.211 346.879 444.335 348.627C443.412 349.632 442.83 350.399 441.725 351.201C440.617 350.38 437.27 351.974 435.849 349.612C434.614 347.559 435.362 345.385 435.177 342.725L435.112 342.028Z"/><defs><linearGradient id="gradient_0" gradientUnits="userSpaceOnUse" x1="456.97791" y1="308.09238" x2="454.91217" y2="304.20056"><stop offset="0" stop-color="#F9F8F8" stop-opacity="0.57254905"/><stop offset="1" stop-color="#FBFBF9" stop-opacity="0.60392159"/></linearGradient></defs><path fill="url(#gradient_0)" d="M454.556 310.537C452.343 310.971 450.279 312.03 451.609 309.49C453.616 305.659 455.762 304.147 459.461 302.041C460.708 301.331 461.223 302.235 462.465 302.708C459.976 305.456 457.15 307.887 454.556 310.537Z"/><path fill="#FEFDFE" fill-opacity="0.47058824" d="M465.379 311.422C468.052 313.984 468.156 313.249 466.826 316.269C466.984 316.287 467.142 316.304 467.3 316.321C467.628 316.784 467.572 316.345 467.652 317.161C468.579 317.154 471.81 315.339 472.515 314.51C473.718 313.096 475.451 313.224 477.174 312.944C474.841 316.149 474.696 314.573 473.092 316.231C471.69 316.625 469.231 317.164 468.325 318.197C467.204 319.477 463.731 321.508 464.159 318.255C464.254 317.531 464.27 315.992 463.953 315.327C463.316 313.989 464.632 313.869 465.033 313.11C465.101 312.984 465.108 312.832 465.05 312.7C464.979 312.549 464.907 312.397 464.836 312.246C465.017 311.971 465.198 311.696 465.379 311.422Z"/><path fill="#FEFDFE" fill-opacity="0.098039217" d="M431.841 345.264C432.885 344.169 434.025 343.089 435.112 342.028L435.177 342.725C435.362 345.385 434.614 347.559 435.849 349.612C437.27 351.974 440.617 350.38 441.725 351.201C440.965 352.097 440.687 352.512 439.752 353.2C437.522 351.73 432.514 355.226 433.027 349.999C433.205 348.177 432.69 346.854 431.841 345.264Z"/><path fill="#FEFDFE" fill-opacity="0.32156864" d="M439.135 338.085C440.379 336.661 441.737 335.341 443.195 334.139C441.309 341.319 444.07 335.686 439.177 342.731C439.27 340.81 439.265 340.086 439.135 338.085Z"/><path fill="#FEFDFE" fill-opacity="0.36078432" d="M462.767 314.22C462.649 316.45 463.978 318.554 462.3 319.599C460.27 319.996 460.583 320.392 459.659 320.642C459.64 320.575 459.622 320.507 459.603 320.439L459.74 320.395C459.622 319.012 459.706 318.533 459.803 317.126C460.69 316.068 461.75 315.156 462.767 314.22Z"/><path fill="#FEFDFE" fill-opacity="0.34901962" d="M446.894 330.105C446.698 331.348 446.812 339.083 444.367 332.627C445.239 331.801 446.048 330.955 446.894 330.105Z"/></svg>