<?xml version="1.0" encoding="utf-8" ?><svg xmlns="http://www.w3.org/2000/svg" xmlns:xlink="http://www.w3.org/1999/xlink" width="1024" height="1024" viewBox="0 0 1024 1024"><path fill="#20C795" d="M286.498 332.973C278.529 337.381 250.543 353.033 246.341 360.308C245.392 358.292 251.527 350.62 253.015 348.547C286.41 302.029 345.357 278.066 398.908 306.189C427.36 321.131 453.599 339.465 482.741 353.127C490.961 356.981 500.77 363.239 509.228 365.837C505.284 375.469 502.34 387.482 498.787 397.397C497.631 400.624 495.528 407.76 493.888 410.458C487.237 404.395 479.877 398.441 472.894 392.739C438.266 364.466 400.716 332.937 356.305 322.17C355.796 330.214 356.111 341.709 356.092 350.155C356.009 366.507 356.033 382.859 356.165 399.21C369.137 397.028 374.347 394.573 385.931 389.747L385.942 336.712C390.741 338.639 404.896 345.405 405.237 351.292C405.728 359.756 404.691 368.416 405.525 377.001L405.607 377.801C411.053 374.154 414.91 371.003 419.938 366.864C426.499 370.456 436.923 378.747 442.819 383.443C442.426 383.79 442.027 384.131 441.623 384.466C435.616 389.521 426.505 395.255 419.934 399.659C397.425 414.745 370.746 427.404 342.846 424.458C306.446 420.615 275.129 398.036 252.427 370.5C253.016 369.053 253.138 368.458 254.584 367.784L255.22 367.475C262.231 372.622 278.986 383.532 286.673 386.516C286.381 368.807 286.556 350.722 286.498 332.973ZM306.052 325.159C305.4 330 305.678 336.023 305.778 341.02C306.135 358.846 305.219 376.977 305.942 394.767C309.563 395.826 313.212 396.787 316.885 397.647C324.292 399.123 328.708 399.87 336.384 400.05C336.497 382.147 336.519 364.242 336.447 346.338C336.406 338.813 336.668 327.294 336.081 320.26C333.854 320.211 330.591 320.04 328.453 320.209C320.543 320.931 313.449 322.251 306.052 325.159Z"/><path fill="#20C795" d="M247.512 498.72C264.37 473.159 289.672 452.219 318.704 442.084C331.202 437.832 344.432 436.16 357.595 437.168C396.265 439.842 419.899 458.738 452.232 477.33C470.946 487.933 490.019 497.889 509.418 507.18C503.753 521.517 499.801 537.306 494.399 550.957L445.983 511.258C418.082 488.741 391.907 467.231 355.095 461.837C354.537 475.346 355.201 490.812 355.409 504.329C355.573 515.038 355.457 525.651 355.61 536.298C368.357 535.315 374.925 531.61 385.999 527.283C385.89 509.834 385.882 492.385 385.976 474.935C392.095 478.414 399.397 482.511 404.953 486.711C405.49 496.239 404.552 506.769 405.457 516.142C410.172 513.245 415.616 509.009 420.127 505.649C427.154 508.973 437.298 516.137 443.208 521.243C435.851 526.208 428.528 531.224 421.241 536.291C391.955 556.237 365.991 567.58 329.281 561.264C321.627 559.947 309.478 555.525 302.727 551.862C285.733 542.639 257.254 519.553 246.782 503.984C258.304 509.935 274.543 519.487 286.184 524.261C286.406 508.414 286.055 491.763 285.983 475.852C270.565 484.002 261.784 489.301 247.512 498.72ZM305.465 467.173C304.942 472.136 305.502 482.307 305.528 487.944L305.559 531.554C308.764 532.666 311.488 533.624 314.779 534.467C321.041 536.139 329.701 538.112 336.211 538.075L336.029 461.406C335.239 461.451 331.942 461.586 331.34 461.7C323.013 462.573 313.322 464.397 305.465 467.173Z"/><path fill="#20C795" d="M464.539 330.632C465.179 330.096 465.827 329.571 466.484 329.056C470.042 326.262 474.098 323.773 477.734 321.121C500.109 304.803 513.707 294.303 542.76 294.012C579.802 293.641 598.956 313.897 625.433 335.821C637.209 345.4 649.178 354.739 661.332 363.834C671.126 371.304 683.284 381.805 695.869 382.93C711.966 384.369 728.361 375.875 729.573 358.241C740.729 364.789 756.462 375.806 767.279 381.344C764.033 387.317 763.26 391.188 758.616 397.479C746.971 413.254 728.991 421.896 710.04 424.906C672.617 430.848 651.15 413.232 623.48 391.739C610.743 382.455 599.62 373.269 587.123 363.566C572.168 351.955 557.237 332.637 535.97 336.681C523.615 339.03 516.533 345.11 509.619 355.063C498.085 350.181 474.477 337.355 464.539 330.632Z"/><path fill="#20C795" d="M626.401 467.622C628.667 465.803 631.037 464.099 633.523 462.597C645.107 455.6 655.634 446.609 668.387 441.819C718.364 423.049 777.348 455.074 770.236 512.696C768.388 527.712 760.926 539.509 749.965 549.741C732.861 565.518 708.225 569.15 685.883 566.111C664.448 563.299 646.996 552.727 629.914 540.248C624.591 536.405 618.418 532.644 613.329 528.57C615.135 527 617.143 525.462 619.06 524.025C628.915 516.636 638.353 508.56 648.268 501.267C653.643 504.845 659.332 508.269 664.813 511.604C677.802 519.507 690.156 527.114 705.87 523.804C713.392 522.219 721.247 518.419 725.541 511.799C728.326 507.418 729.181 502.082 727.905 497.05C724.233 482.768 703.025 475.004 690.019 479.684C678.785 483.726 674.168 488.819 668.703 499.03L668.13 500.107L641.191 479.46C637.389 476.526 629.766 470.814 626.401 467.622Z"/><path fill="#093E4D" d="M108.465 595.484C114.4 595.043 127.573 595.561 133.92 595.618C133.905 608.777 133.995 621.935 134.19 635.093C153.326 624.604 169.546 622.784 188.367 635.655C212.258 651.993 215.457 683.974 198.77 706.757C197.974 707.76 196.789 708.99 195.872 709.904C185.939 719.856 172.384 725.34 158.324 725.093C126.14 724.73 107.12 700.709 108.373 669.055C109.317 645.224 107.929 619.562 108.465 595.484ZM163.281 700.136C176.768 697.581 185.593 684.532 182.943 671.063C180.294 657.595 167.182 648.862 153.733 651.607C140.417 654.325 131.79 667.277 134.413 680.612C137.037 693.946 149.928 702.665 163.281 700.136Z"/><path fill="#093E4D" d="M308.122 626.159C335.534 624.762 358.929 645.762 360.49 673.165C362.05 700.568 341.19 724.088 313.797 725.811C286.172 727.55 262.409 706.474 260.836 678.84C259.262 651.205 280.479 627.568 308.122 626.159ZM315.279 699.963C328.489 697.198 337.012 684.315 334.392 671.075C331.771 657.835 318.982 649.172 305.714 651.648C297.002 653.274 289.835 659.456 286.948 667.835C284.061 676.214 285.899 685.499 291.76 692.146C297.622 698.794 306.604 701.779 315.279 699.963Z"/><path fill="#093E4D" d="M660.77 630.16C663.906 629.85 667.117 629.765 670.267 629.789C683.159 629.888 694.956 634.916 703.89 644.228C708.857 649.404 712.899 655.598 714.945 662.511C718.384 674.126 716.743 710.678 716.493 724.989C712.783 724.987 709.074 724.935 705.365 724.834C704.98 720.486 705.05 714.246 704.964 709.753C699.155 715.665 695.6 718.535 688.143 721.891C657.651 732.766 627.115 717.213 621.328 684.77C619.074 672.34 621.972 659.528 629.357 649.279C637.247 638.215 647.57 632.378 660.77 630.16ZM674.259 714.11C694.569 711.231 708.679 692.405 705.743 672.103C702.807 651.801 683.941 637.744 663.647 640.737C643.435 643.719 629.446 662.494 632.371 682.714C635.295 702.935 654.03 716.977 674.259 714.11Z"/><path fill="#093E4D" d="M464.559 469.604C468.467 466.265 474.784 462.372 479.188 459.439C494.215 449.431 506.662 440.86 524.962 437.597C532.928 436.221 541.048 435.98 549.082 436.882C577.804 439.957 591.784 455.478 612.912 473.281C623.781 482.44 636.588 493.14 648.268 501.267C638.353 508.56 628.915 516.636 619.06 524.025C617.143 525.462 615.135 527 613.329 528.57C600.71 520.478 585.818 507.381 573.767 498.117C568.802 494.037 564.698 488.587 559.35 484.989C540.919 472.591 522.282 477.996 509.99 495.497C504.9 493.418 495.247 487.699 490.351 484.839C481.716 479.825 473.118 474.747 464.559 469.604Z"/><path fill="#093E4D" d="M627.069 322.373C651.226 308.828 666.787 296.253 695.426 294.996C704.979 294.576 714.538 295.66 723.753 298.211C748.91 305.371 768.683 327.132 770.353 353.746C770.865 361.9 770.509 370.989 768.125 378.841C767.868 379.684 767.586 380.518 767.279 381.344C756.462 375.806 740.729 364.789 729.573 358.241C726.243 349.236 722.444 344.334 713.477 340.145C704.918 336.124 695.106 335.701 686.234 338.971C677.986 342.017 672.354 346.985 668.324 354.782C654.508 343.428 640.526 334.587 627.069 322.373Z"/><path fill="#093E4D" d="M419.632 629.694C451.087 628.797 469.704 651.748 468.168 682.21C448.464 681.512 428.422 682.251 408.682 681.962C401.898 681.863 394.834 681.86 388.069 682.144C380.505 688.3 409.641 732.481 446.193 705.525C449.617 702.6 451.502 700.299 454.442 696.904L463.304 702.097C456.557 715.757 440.161 724.219 425.408 725.322C413.009 726.142 400.782 722.074 391.345 713.991C360.192 686.995 374.91 632.513 419.632 629.694ZM427.625 670.932C437.202 670.947 447.167 671.095 456.714 670.963C455.734 662.153 451.308 654.088 444.403 648.528C437.119 642.699 426.819 639.662 417.545 640.643C399.887 644.249 390.7 652.791 386.97 670.737C398.91 671.431 415.351 670.946 427.625 670.932Z"/><path fill="#093E4D" d="M872.428 629.748L873.254 629.742C905.459 629.58 921.733 651.811 921.496 682.507C910.655 681.709 899.344 681.964 888.437 681.964L839.826 681.981C840.507 687.99 841.937 692.653 845.36 697.738C850.819 705.827 859.318 711.365 868.923 713.091C879.867 715.079 889.611 712.513 898.684 706.264C902.419 703.183 904.501 700.563 907.307 696.704C910.483 698.857 913.182 700.589 916.485 702.536C890.771 742.034 830.748 727.379 828.212 679.179C827.42 666.515 831.779 654.069 840.3 644.667C849.068 634.936 859.507 630.445 872.428 629.748ZM840.04 671.016L879.25 671.018C888.696 671.011 900.468 671.333 909.73 670.853C908.395 663.96 906.944 658.673 902.232 653.269C894.396 644.284 883.08 639.925 871.294 640.609C853.811 643.979 843 652.86 840.04 671.016Z"/><path fill="#093E4D" d="M509.228 365.837C514.619 371.192 517.211 375.738 524.473 378.971C541.726 386.654 557.833 381.498 568.486 366.663C572.724 369.047 579.979 374.994 584.146 378.168C590.88 383.299 598.812 389.052 605.017 394.706C588.889 411.374 563.924 424.676 540.772 424.929C526.106 425.09 504.866 420.698 493.888 410.458C495.528 407.76 497.631 400.624 498.787 397.397C502.34 387.482 505.284 375.469 509.228 365.837Z"/><path fill="#093E4D" d="M509.418 507.18C517.528 516.471 523.546 523.015 536.895 523.827C550.403 524.648 559.012 519.437 567.787 509.725C578.827 517.942 592.849 529.125 603.074 538.255C580.149 556.776 562.787 568.29 531.216 565.696C520.676 564.831 501.735 558.308 494.399 550.957C499.801 537.306 503.753 521.517 509.418 507.18Z"/><path fill="#093E4D" d="M222.003 627.542C229.137 627.086 240.321 627.269 247.529 627.58C248.106 636.873 247.637 650.586 247.627 660.243L247.486 724.892C238.993 724.589 230.496 724.44 221.999 724.448L222.003 627.542Z"/><path fill="#093E4D" d="M522.656 629.678C535.03 628.402 548.471 632.894 557.396 641.677C572.092 656.139 570.133 673.026 570.121 691.954L570.167 725.022C566.446 724.956 563.016 724.972 559.321 724.469C558.957 712.691 559.548 700.413 559.428 688.604C559.358 681.689 559.811 673.623 558.503 666.863C557.698 662.58 556.071 658.493 553.712 654.828C548.068 646.107 540.559 642.665 530.764 640.55C520.664 639.578 511.156 641.519 503.764 649.078C499.652 653.311 496.707 658.536 495.216 664.246C493.543 670.789 494.042 683.646 494.047 690.944L494.153 724.994C490.472 725.018 486.792 724.915 483.118 724.686C482.669 716.144 482.811 705.912 483.005 697.181C483.761 683.374 480.952 667.367 486.591 654.425C493.347 638.923 506.41 631.082 522.656 629.678Z"/><path fill="#093E4D" d="M777.001 629.687C793.376 629.013 809.809 635.493 818.811 649.703C816.526 652.197 814.221 654.917 811.563 656.982C807.137 651.575 803.359 647.706 796.956 644.546C787.65 639.903 776.846 639.284 767.071 642.833C757.691 646.15 750.422 652.516 746.235 661.577C741.937 670.846 741.603 681.465 745.307 690.985C753.028 711.247 776.229 718.657 795.691 711.016C802.153 708.414 807.098 702.551 811.394 697.268C814.333 700.46 815.894 702.461 818.458 705.987C801.371 727.539 769.862 732.891 748.542 714.654C738.889 706.334 732.907 694.542 731.897 681.838C729.797 653.283 748.351 631.541 777.001 629.687Z"/><path fill="#093E4D" d="M596.207 596.726L602.6 596.501L602.541 724.751L597.625 724.769L591.007 724.753C590.531 682.232 591.166 639.519 590.945 596.969L596.207 596.726Z"/><path fill="#093E4D" d="M232.333 589.814C240.08 588.551 247.422 593.69 248.887 601.401C250.351 609.112 245.404 616.585 237.734 618.25C232.592 619.366 227.249 617.604 223.779 613.648C220.31 609.692 219.26 604.164 221.038 599.212C222.815 594.259 227.14 590.661 232.333 589.814Z"/><path fill="#4DC4A5" fill-opacity="0.98823529" d="M245.871 361.614L246.519 362.054C249.31 363.98 252.353 365.563 255.22 367.475L254.584 367.784C253.138 368.458 253.016 369.053 252.427 370.5C249.984 367.35 248.189 364.85 245.871 361.614Z"/></svg>