<?xml version="1.0" encoding="UTF-8" standalone="no"?>
<!-- Created with Inkscape (http://www.inkscape.org/) -->

<svg
   width="512"
   height="512"
   viewBox="0 0 135.46666 135.46667"
   version="1.1"
   id="svg1"
   inkscape:version="1.4.2 (f4327f4, 2025-05-13)"
   sodipodi:docname="logo_icono_2.svg"
   inkscape:export-filename="rombo.png"
   inkscape:export-xdpi="96"
   inkscape:export-ydpi="96"
   xmlns:inkscape="http://www.inkscape.org/namespaces/inkscape"
   xmlns:sodipodi="http://sodipodi.sourceforge.net/DTD/sodipodi-0.dtd"
   xmlns="http://www.w3.org/2000/svg"
   xmlns:svg="http://www.w3.org/2000/svg">
  <sodipodi:namedview
     id="namedview1"
     pagecolor="#ffffff"
     bordercolor="#000000"
     borderopacity="0.25"
     inkscape:showpageshadow="2"
     inkscape:pageopacity="0.0"
     inkscape:pagecheckerboard="0"
     inkscape:deskcolor="#d1d1d1"
     inkscape:document-units="mm"
     inkscape:zoom="1.0078851"
     inkscape:cx="149.32258"
     inkscape:cy="351.23051"
     inkscape:window-width="1920"
     inkscape:window-height="1009"
     inkscape:window-x="-8"
     inkscape:window-y="-8"
     inkscape:window-maximized="1"
     inkscape:current-layer="marca-4" />
  <defs
     id="defs1">
    <linearGradient
       id="linearGradient1"
       inkscape:swatch="gradient">
      <stop
         style="stop-color:#000000;stop-opacity:1;"
         offset="0"
         id="stop1" />
      <stop
         style="stop-color:#000000;stop-opacity:0;"
         offset="1"
         id="stop2" />
    </linearGradient>
  </defs>
  <g
     inkscape:label="Layer 1"
     inkscape:groupmode="layer"
     id="layer1">
    <g
       id="g1"
       transform="matrix(4.3154705,0,0,4.3154705,-385.24982,-285.46204)">
      <g
         id="marca-4"
         inkscape:label="Rombo rejilla punta"
         style="stroke-width:20.3207;stroke-dasharray:none"
         transform="matrix(-0.05985996,-0.0519129,0.0519129,-0.05985996,104.85004,109.59726)">
        <!-- Top (256,96), Right (416,256), Bottom (256,416), Left (96,256) -->
        <path
           id="rombo"
           class="rombo"
           d="M 63.273315,203.20893 294.4982,100.71677 396.99022,331.94163 165.76553,434.43375 Z"
           style="display:inline;fill:none;stroke:#767676;stroke-width:17.5216;stroke-linecap:round;stroke-linejoin:round;stroke-dasharray:none;stroke-opacity:1"
           inkscape:export-filename="rombo.png"
           inkscape:export-xdpi="95.300003"
           inkscape:export-ydpi="95.300003" />
        <!-- Rejilla minima: solo cruz por el centro (2 lineas) -->
        <path
           id="cuerda-v-inf"
           class="eje-teal"
           d="M 230.25529,265.39656 52.849242,196.96147"
           style="display:inline;opacity:0.9;fill:none;stroke:#6bc9ff;stroke-width:38.4299;stroke-linecap:round;stroke-dasharray:none;stroke-opacity:1" />
        <!-- Punta superior: eje coral del centro hasta el borde inferior del circulo (r=16, cy=96 => y=112) -->
        <path
           id="cuerda-v-sup-coral"
           class="eje-coral"
           d="m 230.25529,265.39656 39.26056,15.14497 120.40488,46.44665"
           style="display:inline;fill:none;fill-opacity:1;stroke:#e95757;stroke-width:38.4299;stroke-linecap:round;stroke-dasharray:none;stroke-opacity:1"
           sodipodi:nodetypes="ccc" />
        <path
           id="nodo-punta"
           style="display:inline;fill:#fc739a;fill-opacity:1;stroke:#e95757;stroke-width:45.2768;stroke-linecap:butt;stroke-linejoin:miter;stroke-dasharray:none;stroke-opacity:1;paint-order:stroke fill markers"
           class="nodo-coral"
           d="m 379.04203,346.11279 a 19.014803,19.014803 0 0 1 -10.89712,-24.58413 19.014803,19.014803 0 0 1 24.58415,-10.89712 19.014803,19.014803 0 0 1 10.89708,24.58411 19.014803,19.014803 0 0 1 -24.58411,10.89714 z" />
        <path
           id="nodo-punta-1"
           style="display:inline;fill:#6bf4ff;fill-opacity:1;stroke:#6bccff;stroke-width:45.2768;stroke-dasharray:none;stroke-opacity:1;paint-order:stroke fill markers"
           class="nodo-coral"
           d="M 61.896674,223.40935 A 19.014803,19.014803 0 0 1 50.999577,198.82524 19.014803,19.014803 0 0 1 75.583699,187.92813 19.014803,19.014803 0 0 1 86.480783,212.51228 19.014803,19.014803 0 0 1 61.896674,223.40935 Z" />
        <path
           id="nodo-punta-8"
           style="display:inline;fill:#cfcfcf;fill-opacity:1;stroke:#808080;stroke-width:20.2518;stroke-miterlimit:0;stroke-dasharray:none;stroke-opacity:1;paint-order:markers fill stroke"
           class="nodo-coral"
           d="m 283.34035,126.8949 a 19.014803,19.014803 0 0 1 -10.89714,-24.58414 19.014803,19.014803 0 0 1 24.5841,-10.897063 19.014803,19.014803 0 0 1 10.89713,24.584113 19.014803,19.014803 0 0 1 -24.58409,10.89709 z" />
        <path
           id="nodo-punta-8-1"
           style="display:inline;fill:#cfcfcf;fill-opacity:1;stroke:#808080;stroke-width:20.2518;stroke-miterlimit:0;stroke-dasharray:none;stroke-opacity:1;paint-order:markers fill stroke"
           class="nodo-coral"
           d="m 158.24714,440.62323 a 19.014803,19.014803 0 0 1 -10.89713,-24.5841 19.014803,19.014803 0 0 1 24.58414,-10.89716 19.014803,19.014803 0 0 1 10.8971,24.58412 19.014803,19.014803 0 0 1 -24.58411,10.89714 z" />
      </g>
    </g>
  </g>
</svg>
