<?xml version="1.0" encoding="UTF-8" standalone="no"?>
<!-- Created with Inkscape (http://www.inkscape.org/) -->

<svg
   width="512"
   height="512"
   viewBox="0 0 135.46666 135.46667"
   version="1.1"
   id="svg1"
   inkscape:version="1.4.2 (f4327f4, 2025-05-13)"
   sodipodi:docname="logo_icono.svg"
   inkscape:export-filename="logo_icono.png"
   inkscape:export-xdpi="96"
   inkscape:export-ydpi="96"
   xmlns:inkscape="http://www.inkscape.org/namespaces/inkscape"
   xmlns:sodipodi="http://sodipodi.sourceforge.net/DTD/sodipodi-0.dtd"
   xmlns="http://www.w3.org/2000/svg"
   xmlns:svg="http://www.w3.org/2000/svg">
  <sodipodi:namedview
     id="namedview1"
     pagecolor="#ffffff"
     bordercolor="#000000"
     borderopacity="0.25"
     inkscape:showpageshadow="2"
     inkscape:pageopacity="0.0"
     inkscape:pagecheckerboard="0"
     inkscape:deskcolor="#d1d1d1"
     inkscape:document-units="mm"
     inkscape:zoom="0.7126824"
     inkscape:cx="251.16377"
     inkscape:cy="561.9614"
     inkscape:window-width="977"
     inkscape:window-height="1032"
     inkscape:window-x="104"
     inkscape:window-y="0"
     inkscape:window-maximized="0"
     inkscape:current-layer="layer1" />
  <defs
     id="defs1" />
  <g
     inkscape:label="Layer 1"
     inkscape:groupmode="layer"
     id="layer1">
    <g
       id="g1"
       transform="matrix(4.7474737,0,0,4.7474737,-429.30221,-319.86984)">
      <g
         id="marca-4"
         inkscape:label="Rombo rejilla punta"
         style="stroke-width:20.3207;stroke-dasharray:none"
         transform="matrix(-0.05985996,-0.0519129,0.0519129,-0.05985996,104.85004,109.59726)">
        <!-- Top (256,96), Right (416,256), Bottom (256,416), Left (96,256) -->
        <path
           id="rombo"
           class="rombo"
           d="M 78.728413,208.20326 285.59138,116.50967 377.28496,323.37264 170.42199,415.06622 Z"
           style="fill:none;stroke:#093e4d;stroke-width:10.2228;stroke-linecap:round;stroke-linejoin:round;stroke-dasharray:none" />
        <!-- Rejilla minima: solo cruz por el centro (2 lineas) -->
        <path
           id="cuerda-v-inf"
           class="eje-teal"
           d="M 228.00668,265.78795 78.728413,208.20326"
           style="opacity:0.9;fill:none;stroke:#ff6b6b;stroke-width:26.7811;stroke-linecap:round;stroke-dasharray:none;stroke-opacity:1" />
        <!-- Punta superior: eje coral del centro hasta el borde inferior del circulo (r=16, cy=96 => y=112) -->
        <path
           id="cuerda-v-sup-coral"
           class="eje-coral"
           d="m 228.00668,265.78795 134.35046,51.82622"
           style="fill:none;stroke:#ff6b6b;stroke-width:26.7811;stroke-linecap:round;stroke-dasharray:none" />
        <path
           id="nodo-punta"
           style="fill:#ff6b6b;stroke:#ff6b6b;stroke-width:41.9007"
           class="nodo-coral"
           transform="rotate(111.09432)"
           d="m 181.91669,-468.38605 a 16,16 0 0 1 -16,16 16,16 0 0 1 -16,-16 16,16 0 0 1 16,-16 16,16 0 0 1 16,16 z" />
        <path
           id="nodo-punta-1"
           style="fill:#ff6b6b;stroke:#ff6b6b;stroke-width:41.9007"
           class="nodo-coral"
           transform="rotate(111.09432)"
           d="m 183.68507,-153.12012 a 16,16 0 0 1 -16,16 16,16 0 0 1 -16,-16 16,16 0 0 1 16,-16 16,16 0 0 1 16,16 z" />
      </g>
    </g>
  </g>
</svg>
