<?xml version="1.0" encoding="UTF-8" standalone="no"?>
<!-- Created with Inkscape (http://www.inkscape.org/) -->

<svg
   width="512"
   height="512"
   viewBox="0 0 135.46666 135.46667"
   version="1.1"
   id="svg1"
   inkscape:version="1.4.2 (f4327f4, 2025-05-13)"
   sodipodi:docname="logo_icono_2.svg"
   inkscape:export-filename="logo_icono_2.png"
   inkscape:export-xdpi="96"
   inkscape:export-ydpi="96"
   xmlns:inkscape="http://www.inkscape.org/namespaces/inkscape"
   xmlns:sodipodi="http://sodipodi.sourceforge.net/DTD/sodipodi-0.dtd"
   xmlns="http://www.w3.org/2000/svg"
   xmlns:svg="http://www.w3.org/2000/svg">
  <sodipodi:namedview
     id="namedview1"
     pagecolor="#ffffff"
     bordercolor="#000000"
     borderopacity="0.25"
     inkscape:showpageshadow="2"
     inkscape:pageopacity="0.0"
     inkscape:pagecheckerboard="0"
     inkscape:deskcolor="#d1d1d1"
     inkscape:document-units="mm"
     inkscape:zoom="1.0078851"
     inkscape:cx="149.81866"
     inkscape:cy="351.7266"
     inkscape:window-width="1920"
     inkscape:window-height="1009"
     inkscape:window-x="-8"
     inkscape:window-y="-8"
     inkscape:window-maximized="1"
     inkscape:current-layer="marca-4" />
  <defs
     id="defs1">
    <linearGradient
       id="linearGradient1"
       inkscape:swatch="gradient">
      <stop
         style="stop-color:#000000;stop-opacity:1;"
         offset="0"
         id="stop1" />
      <stop
         style="stop-color:#000000;stop-opacity:0;"
         offset="1"
         id="stop2" />
    </linearGradient>
  </defs>
  <g
     inkscape:label="Layer 1"
     inkscape:groupmode="layer"
     id="layer1">
    <g
       id="g1"
       transform="matrix(4.3154705,0,0,4.3154705,-385.24982,-285.46204)">
      <g
         id="marca-4"
         inkscape:label="Rombo rejilla punta"
         style="stroke-width:20.3207;stroke-dasharray:none"
         transform="matrix(-0.05985996,-0.0519129,0.0519129,-0.05985996,104.85004,109.59726)">
        <!-- Top (256,96), Right (416,256), Bottom (256,416), Left (96,256) -->
        <path
           id="rombo"
           class="rombo"
           d="M 91.007176,210.4184 285.57126,124.17641 371.81319,318.7405 177.24921,404.98244 Z"
           style="display:inline;fill:none;stroke:#767676;stroke-width:14.7436;stroke-linecap:round;stroke-linejoin:round;stroke-dasharray:none;stroke-opacity:1" />
        <!-- Rejilla minima: solo cruz por el centro (2 lineas) -->
        <path
           id="cuerda-v-inf"
           class="eje-teal"
           d="M 231.5141,262.74616 82.235845,205.16147"
           style="display:inline;opacity:0.9;fill:none;stroke:#6bc9ff;stroke-width:32.3365;stroke-linecap:round;stroke-dasharray:none;stroke-opacity:1" />
        <!-- Punta superior: eje coral del centro hasta el borde inferior del circulo (r=16, cy=96 => y=112) -->
        <path
           id="cuerda-v-sup-coral"
           class="eje-coral"
           d="m 231.5141,262.74616 33.0358,12.74369 101.31466,39.08253"
           style="display:inline;fill:none;fill-opacity:1;stroke:#e95757;stroke-width:32.3365;stroke-linecap:round;stroke-dasharray:none;stroke-opacity:1"
           sodipodi:nodetypes="ccc" />
        <path
           id="nodo-punta"
           style="display:inline;fill:#fc739a;fill-opacity:1;stroke:#e95757;stroke-width:38.0978;stroke-linecap:butt;stroke-linejoin:miter;stroke-dasharray:none;stroke-opacity:1;paint-order:stroke fill markers"
           class="nodo-coral"
           d="m 356.71067,330.66479 a 16,16 0 0 1 -9.16935,-20.6863 16,16 0 0 1 20.68629,-9.16936 16,16 0 0 1 9.16936,20.6863 16,16 0 0 1 -20.6863,9.16936 z" />
        <path
           id="nodo-punta-1"
           style="display:inline;fill:#6bf4ff;fill-opacity:1;stroke:#6bccff;stroke-width:38.0978;stroke-dasharray:none;stroke-opacity:1;paint-order:stroke fill markers"
           class="nodo-coral"
           d="m 89.848803,227.41605 a 16,16 0 0 1 -9.169359,-20.6863 16,16 0 0 1 20.686296,-9.16936 16,16 0 0 1 9.16935,20.6863 16,16 0 0 1 -20.686287,9.16936 z" />
        <path
           id="nodo-punta-8"
           style="display:inline;fill:#cfcfcf;fill-opacity:1;stroke:#808080;stroke-width:17.0412;stroke-miterlimit:0;stroke-dasharray:none;stroke-opacity:1;paint-order:markers fill stroke"
           class="nodo-coral"
           d="m 276.18249,146.20398 a 16,16 0 0 1 -9.16936,-20.6863 16,16 0 0 1 20.68629,-9.16936 16,16 0 0 1 9.16936,20.6863 16,16 0 0 1 -20.68629,9.16936 z" />
        <path
           id="nodo-punta-8-1"
           style="display:inline;fill:#cfcfcf;fill-opacity:1;stroke:#808080;stroke-width:17.0412;stroke-miterlimit:0;stroke-dasharray:none;stroke-opacity:1;paint-order:markers fill stroke"
           class="nodo-coral"
           d="m 170.92287,410.19057 a 16,16 0 0 1 -9.16936,-20.6863 16,16 0 0 1 20.68629,-9.16936 16,16 0 0 1 9.16936,20.6863 16,16 0 0 1 -20.68629,9.16936 z" />
      </g>
    </g>
  </g>
</svg>
